<mxfile host="app.diagrams.net" agent="Mozilla/5.0 (Windows NT 10.0; Win64; x64) AppleWebKit/537.36 (KHTML, like Gecko) Chrome/140.0.0.0 Safari/537.36" version="28.2.5">
  <diagram name="หน้า-1" id="D9tIPbwJglL8rs9eDzOi">
    <mxGraphModel dx="1665" dy="743" grid="1" gridSize="10" guides="1" tooltips="1" connect="1" arrows="1" fold="1" page="1" pageScale="1" pageWidth="827" pageHeight="1169" math="0" shadow="0">
      <root>
        <mxCell id="0" />
        <mxCell id="1" parent="0" />
        <mxCell id="2" value="Start" style="ellipse;whiteSpace=wrap;html=1;" vertex="1" parent="1">
          <mxGeometry x="340" width="120" height="40" as="geometry" />
        </mxCell>
        <mxCell id="3" value="กำหนดตัวแปร ID[11], hours, salaryhours, sumSalary" style="shape=rectangle;whiteSpace=wrap;html=1;" vertex="1" parent="1">
          <mxGeometry x="250" y="80" width="300" height="40" as="geometry" />
        </mxCell>
        <mxCell id="4" value="แสดงข้อความ Input the Employees ID" style="shape=parallelogram;whiteSpace=wrap;html=1;size=0.07500000000000001;" vertex="1" parent="1">
          <mxGeometry x="250" y="160" width="300" height="40" as="geometry" />
        </mxCell>
        <mxCell id="5" value="รับค่า ID" style="shape=parallelogram;whiteSpace=wrap;html=1;size=0.08653846153846154;" vertex="1" parent="1">
          <mxGeometry x="270" y="240" width="260" height="40" as="geometry" />
        </mxCell>
        <mxCell id="6" value="แสดงข้อความ Input the working hrs" style="shape=parallelogram;whiteSpace=wrap;html=1;size=0.07500000000000001;" vertex="1" parent="1">
          <mxGeometry x="250" y="320" width="300" height="40" as="geometry" />
        </mxCell>
        <mxCell id="7" value="รับค่า hours" style="shape=parallelogram;whiteSpace=wrap;html=1;size=0.1;" vertex="1" parent="1">
          <mxGeometry x="250" y="400" width="300" height="40" as="geometry" />
        </mxCell>
        <mxCell id="8" value="แสดงข้อความ Salary amount/hr" style="shape=parallelogram;whiteSpace=wrap;html=1;size=0.1;" vertex="1" parent="1">
          <mxGeometry x="250" y="480" width="300" height="40" as="geometry" />
        </mxCell>
        <mxCell id="9" value="รับค่า salaryhours" style="shape=parallelogram;whiteSpace=wrap;html=1;size=0.1;" vertex="1" parent="1">
          <mxGeometry x="250" y="560" width="300" height="40" as="geometry" />
        </mxCell>
        <mxCell id="10" value="คำนวณ sumSalary = hours * salaryhours" style="shape=rectangle;whiteSpace=wrap;html=1;" vertex="1" parent="1">
          <mxGeometry x="280" y="640" width="240" height="40" as="geometry" />
        </mxCell>
        <mxCell id="11" value="แสดงข้อความ Expected Output" style="shape=parallelogram;whiteSpace=wrap;html=1;size=0.1;" vertex="1" parent="1">
          <mxGeometry x="250" y="720" width="300" height="40" as="geometry" />
        </mxCell>
        <mxCell id="12" value="แสดง Employees ID = ID" style="shape=parallelogram;whiteSpace=wrap;html=1;size=0.15000000000000002;" vertex="1" parent="1">
          <mxGeometry x="250" y="800" width="300" height="40" as="geometry" />
        </mxCell>
        <mxCell id="13" value="แสดง Salary = sumSalary" style="shape=parallelogram;whiteSpace=wrap;html=1;size=0.1;" vertex="1" parent="1">
          <mxGeometry x="250" y="880" width="300" height="40" as="geometry" />
        </mxCell>
        <mxCell id="14" value="Stop" style="ellipse;whiteSpace=wrap;html=1;" vertex="1" parent="1">
          <mxGeometry x="340" y="960" width="120" height="40" as="geometry" />
        </mxCell>
        <mxCell id="15" edge="1" parent="1" source="2" target="3">
          <mxGeometry relative="1" as="geometry" />
        </mxCell>
        <mxCell id="16" edge="1" parent="1" source="3" target="4">
          <mxGeometry relative="1" as="geometry" />
        </mxCell>
        <mxCell id="17" edge="1" parent="1" source="4" target="5">
          <mxGeometry relative="1" as="geometry" />
        </mxCell>
        <mxCell id="18" edge="1" parent="1" source="5" target="6">
          <mxGeometry relative="1" as="geometry" />
        </mxCell>
        <mxCell id="19" edge="1" parent="1" source="6" target="7">
          <mxGeometry relative="1" as="geometry" />
        </mxCell>
        <mxCell id="20" edge="1" parent="1" source="7" target="8">
          <mxGeometry relative="1" as="geometry" />
        </mxCell>
        <mxCell id="21" edge="1" parent="1" source="8" target="9">
          <mxGeometry relative="1" as="geometry" />
        </mxCell>
        <mxCell id="22" edge="1" parent="1" source="9" target="10">
          <mxGeometry relative="1" as="geometry" />
        </mxCell>
        <mxCell id="23" edge="1" parent="1" source="10" target="11">
          <mxGeometry relative="1" as="geometry" />
        </mxCell>
        <mxCell id="24" edge="1" parent="1" source="11" target="12">
          <mxGeometry relative="1" as="geometry" />
        </mxCell>
        <mxCell id="25" edge="1" parent="1" source="12" target="13">
          <mxGeometry relative="1" as="geometry" />
        </mxCell>
        <mxCell id="26" edge="1" parent="1" source="13" target="14">
          <mxGeometry relative="1" as="geometry" />
        </mxCell>
      </root>
    </mxGraphModel>
  </diagram>
</mxfile>
